# Blender v2.77 (sub 0) OBJ File: ''
# www.blender.org
mtllib china_cable.mtl
o China_Cable
v 0.023815 0.013750 0.500000
v -0.000000 -0.027499 0.500000
v 0.023815 0.013750 -0.500000
v -0.000000 -0.027500 -0.500000
v -0.023815 0.013750 -0.500000
v -0.023815 0.013750 0.500000
v -0.000000 -0.027500 -0.500000
v -0.000000 -0.027499 0.500000
v -0.023815 0.034682 -2.333622
v -0.023815 0.013750 -0.500000
v 0.023816 0.034682 -2.333622
v 0.023815 0.013750 -0.500000
v -0.000000 -0.027500 -0.500000
v -0.000000 -0.006567 -2.333622
v -0.000000 -0.006567 -2.333622
v -0.000000 -0.027500 -0.500000
v -0.023815 0.083413 -4.225804
v -0.023815 0.034682 -2.333622
v 0.023816 0.083412 -4.225804
v 0.023816 0.034682 -2.333622
v 0.000000 0.042163 -4.225804
v -0.000000 -0.006567 -2.333622
v -0.000000 -0.006567 -2.333622
v 0.000000 0.042163 -4.225804
v -0.000000 -0.006566 2.333622
v -0.000000 -0.027499 0.500000
v 0.023816 0.034683 2.333622
v 0.023815 0.013750 0.500000
v -0.023815 0.034683 2.333622
v -0.023815 0.013750 0.500000
v -0.000000 -0.006566 2.333622
v -0.000000 -0.027499 0.500000
v 0.023816 0.159279 -6.364865
v 0.023816 0.083412 -4.225804
v 0.000000 0.118030 -6.364865
v 0.000000 0.042163 -4.225804
v -0.023815 0.083413 -4.225804
v -0.023815 0.159279 -6.364865
v 0.000000 0.042163 -4.225804
v 0.000000 0.118030 -6.364865
v -0.023815 0.159281 6.364865
v -0.023815 0.083414 4.225804
v 0.000000 0.118031 6.364865
v 0.000000 0.042165 4.225804
v 0.023816 0.083414 4.225804
v 0.023816 0.159281 6.364865
v 0.000000 0.042165 4.225804
v 0.000000 0.118031 6.364865
v 0.000000 0.042165 4.225804
v -0.000000 -0.006566 2.333622
v 0.023816 0.083414 4.225804
v 0.023816 0.034683 2.333622
v -0.023815 0.083414 4.225804
v -0.023815 0.034683 2.333622
v 0.000000 0.042165 4.225804
v -0.000000 -0.006566 2.333622
vt 0.7319 0.0237
vt 0.7531 0.0237
vt 0.7319 0.4685
vt 0.7531 0.4685
vt 0.7107 0.4685
vt 0.7107 0.0237
vt 0.6895 0.4685
vt 0.6895 0.0237
vt 0.5997 0.8395
vt 0.5997 0.0239
vt 0.6209 0.8395
vt 0.6209 0.0239
vt 0.5785 0.0237
vt 0.5785 0.8393
vt 0.6421 0.8393
vt 0.6421 0.0237
vt 0.3778 0.8660
vt 0.3778 0.0242
vt 0.3990 0.8660
vt 0.3990 0.0242
vt 0.4201 0.8655
vt 0.4201 0.0237
vt 0.3566 0.0237
vt 0.3566 0.8655
vt 0.5311 0.0239
vt 0.5311 0.8395
vt 0.5099 0.0237
vt 0.5099 0.8393
vt 0.4887 0.0237
vt 0.4887 0.8393
vt 0.4676 0.0239
vt 0.4676 0.8395
vt 0.1770 0.9763
vt 0.1770 0.0244
vt 0.1982 0.9756
vt 0.1982 0.0237
vt 0.1558 0.0244
vt 0.1558 0.9763
vt 0.1347 0.0237
vt 0.1347 0.9756
vt 0.0449 0.0237
vt 0.0449 0.9756
vt 0.0237 0.0244
vt 0.0237 0.9763
vt 0.0661 0.9756
vt 0.0661 0.0237
vt 0.0872 0.9763
vt 0.0872 0.0244
vt 0.3092 0.0242
vt 0.3092 0.8660
vt 0.2880 0.0237
vt 0.2880 0.8655
vt 0.2668 0.0237
vt 0.2668 0.8655
vt 0.2456 0.0242
vt 0.2456 0.8660
vn 0.8674 0.4976 -0.0028
vn -0.0000 -1.0000 0.0057
vn 0.8674 0.4976 0.0028
vn -0.0000 -1.0000 -0.0057
vn -0.8674 0.4976 0.0028
vn -0.8674 0.4976 -0.0028
vn -0.8678 0.4969 0.0092
vn 0.8677 0.4969 0.0092
vn -0.0000 -1.0000 -0.0056
vn -0.0000 -0.9998 -0.0185
vn -0.8672 0.4977 0.0152
vn -0.8677 0.4969 0.0092
vn 0.8672 0.4977 0.0152
vn 0.8678 0.4969 0.0092
vn -0.0000 -0.9995 -0.0305
vn 0.0000 -0.9998 0.0185
vn 0.0000 -1.0000 0.0056
vn 0.8677 0.4969 -0.0092
vn -0.8678 0.4969 -0.0092
vn 0.8574 0.5143 0.0182
vn -0.0000 -0.9994 -0.0354
vn -0.8574 0.5143 0.0182
vn 0.0000 -0.9994 -0.0355
vn -0.8574 0.5143 -0.0182
vn -0.8672 0.4977 -0.0152
vn 0.0000 -0.9994 0.0355
vn -0.0000 -0.9995 0.0305
vn 0.8672 0.4977 -0.0152
vn 0.8574 0.5143 -0.0182
vn 0.8678 0.4969 -0.0092
usemtl Cable
s 1
f 1/1/1 2/2/2 3/3/3
f 3/3/3 2/2/2 4/4/4
f 5/5/5 1/1/1 3/3/3
f 6/6/6 1/1/1 5/5/5
f 5/5/5 7/7/4 6/6/6
f 6/6/6 7/7/4 8/8/2
f 9/9/7 10/10/5 11/11/8
f 11/11/8 10/10/5 12/12/3
f 9/9/7 13/13/9 10/10/5
f 14/14/10 13/13/9 9/9/7
f 11/11/8 12/12/3 15/15/10
f 15/15/10 12/12/3 16/16/4
f 17/17/11 18/18/12 19/19/13
f 19/19/13 18/18/12 20/20/14
f 19/19/13 20/20/14 21/21/15
f 21/21/15 20/20/14 22/22/10
f 17/17/11 23/23/10 18/18/12
f 24/24/15 23/23/10 17/17/11
f 25/25/16 26/26/17 27/27/18
f 27/27/18 26/26/17 28/28/1
f 27/27/18 28/28/1 29/29/19
f 29/29/19 28/28/1 30/30/6
f 29/29/19 30/30/6 31/31/16
f 31/31/16 30/30/6 32/32/2
f 33/33/20 34/34/13 35/35/21
f 35/35/21 34/34/13 36/36/15
f 33/33/20 37/37/11 34/34/13
f 38/38/22 37/37/11 33/33/20
f 38/38/22 39/39/15 37/37/11
f 40/40/23 39/39/15 38/38/22
f 41/41/24 42/42/25 43/43/26
f 43/43/26 42/42/25 44/44/27
f 41/41/24 45/45/28 42/42/25
f 46/46/29 45/45/28 41/41/24
f 46/46/29 47/47/27 45/45/28
f 48/48/26 47/47/27 46/46/29
f 49/49/27 50/50/16 51/51/28
f 51/51/28 50/50/16 52/52/30
f 51/51/28 52/52/30 53/53/25
f 53/53/25 52/52/30 54/54/19
f 53/53/25 54/54/19 55/55/27
f 55/55/27 54/54/19 56/56/16
