# Blender v2.77 (sub 0) OBJ File: ''
# www.blender.org
mtllib chinalantern.mtl
o China_Lantain
v -0.058779 -0.161803 0.101807
v 0.058779 -0.161803 0.101807
v -0.095106 -0.061803 0.164728
v 0.095106 -0.061803 0.164728
v -0.095106 0.061803 0.164728
v 0.095106 0.061803 0.164728
v -0.058779 0.161803 0.101807
v 0.058779 0.161803 0.101807
v 0.000000 -0.200000 0.000000
v 0.000000 0.200000 -0.000000
v -0.117557 -0.161803 0.000000
v -0.058779 -0.161803 0.101807
v -0.190211 -0.061803 0.000000
v -0.095106 -0.061803 0.164728
v -0.190211 0.061803 -0.000000
v -0.095106 0.061803 0.164728
v -0.117557 0.161803 -0.000000
v -0.058779 0.161803 0.101807
v 0.000000 -0.200000 0.000000
v 0.000000 0.200000 -0.000000
v -0.058779 -0.161803 -0.101807
v -0.117557 -0.161803 0.000000
v -0.095106 -0.061803 -0.164728
v -0.190211 -0.061803 0.000000
v -0.095106 0.061803 -0.164728
v -0.190211 0.061803 -0.000000
v -0.058779 0.161803 -0.101807
v -0.117557 0.161803 -0.000000
v 0.000000 -0.200000 0.000000
v 0.000000 0.200000 -0.000000
v 0.058779 -0.161803 -0.101807
v -0.058779 -0.161803 -0.101807
v 0.095106 -0.061803 -0.164728
v -0.095106 -0.061803 -0.164728
v 0.095106 0.061803 -0.164728
v -0.095106 0.061803 -0.164728
v 0.058779 0.161803 -0.101807
v -0.058779 0.161803 -0.101807
v 0.000000 -0.200000 0.000000
v 0.000000 0.200000 -0.000000
v 0.117557 -0.161803 0.000000
v 0.058779 -0.161803 -0.101807
v 0.190211 -0.061803 0.000000
v 0.095106 -0.061803 -0.164728
v 0.190211 0.061803 -0.000000
v 0.095106 0.061803 -0.164728
v 0.117557 0.161803 -0.000000
v 0.058779 0.161803 -0.101807
v 0.000000 -0.200000 0.000000
v 0.000000 0.200000 -0.000000
v 0.058779 -0.161803 0.101807
v 0.000000 -0.200000 0.000000
v 0.117557 -0.161803 0.000000
v 0.095106 -0.061803 0.164728
v 0.190211 -0.061803 0.000000
v 0.095106 0.061803 0.164728
v 0.190211 0.061803 -0.000000
v 0.058779 0.161803 0.101807
v 0.117557 0.161803 -0.000000
v 0.000000 0.200000 -0.000000
vt 0.2104 0.0982
vt 0.3096 0.0982
vt 0.1798 0.1979
vt 0.3403 0.1979
vt 0.1798 0.3021
vt 0.3403 0.3021
vt 0.2104 0.4018
vt 0.3096 0.4018
vt 0.2600 0.0064
vt 0.2600 0.4936
vt 0.3838 0.0982
vt 0.4829 0.0982
vt 0.3531 0.1979
vt 0.5136 0.1979
vt 0.3531 0.3021
vt 0.5136 0.3021
vt 0.3838 0.4018
vt 0.4829 0.4018
vt 0.4334 0.0064
vt 0.4334 0.4936
vt 0.5571 0.0982
vt 0.6563 0.0982
vt 0.5264 0.1979
vt 0.6869 0.1979
vt 0.5264 0.3021
vt 0.6869 0.3021
vt 0.5571 0.4018
vt 0.6563 0.4018
vt 0.6067 0.0064
vt 0.6067 0.4936
vt 0.2104 0.5982
vt 0.3096 0.5982
vt 0.1798 0.6979
vt 0.3403 0.6979
vt 0.1798 0.8021
vt 0.3403 0.8021
vt 0.2104 0.9018
vt 0.3096 0.9018
vt 0.2600 0.5064
vt 0.2600 0.9936
vt 0.7304 0.0982
vt 0.8296 0.0982
vt 0.6998 0.1979
vt 0.8603 0.1979
vt 0.6998 0.3021
vt 0.8603 0.3021
vt 0.7304 0.4018
vt 0.8296 0.4018
vt 0.7800 0.0064
vt 0.7800 0.4936
vt 0.0371 0.0982
vt 0.0867 0.0064
vt 0.1363 0.0982
vt 0.0064 0.1979
vt 0.1669 0.1979
vt 0.0064 0.3021
vt 0.1669 0.3021
vt 0.0371 0.4018
vt 0.1363 0.4018
vt 0.0867 0.4936
vn -0.3233 -0.7628 0.5600
vn 0.3233 -0.7628 0.5600
vn -0.4795 -0.2834 0.8305
vn 0.4795 -0.2834 0.8305
vn -0.4795 0.2834 0.8305
vn 0.4795 0.2834 0.8305
vn -0.3233 0.7628 0.5600
vn 0.3233 0.7628 0.5600
vn 0.0000 -1.0000 0.0000
vn -0.0000 1.0000 0.0000
vn -0.6466 -0.7628 -0.0000
vn -0.9590 -0.2834 -0.0000
vn -0.9590 0.2834 0.0000
vn -0.6466 0.7628 0.0000
vn -0.3233 -0.7628 -0.5600
vn -0.4795 -0.2834 -0.8305
vn -0.4795 0.2834 -0.8305
vn -0.3233 0.7628 -0.5600
vn 0.3233 -0.7628 -0.5600
vn 0.4795 -0.2834 -0.8305
vn 0.4795 0.2834 -0.8305
vn 0.3233 0.7628 -0.5600
vn 0.6466 -0.7628 0.0000
vn 0.9590 -0.2834 0.0000
vn 0.9590 0.2834 -0.0000
vn 0.6466 0.7628 -0.0000
usemtl Lantain
s 1
f 1/1/1 2/2/2 3/3/3
f 3/3/3 2/2/2 4/4/4
f 3/3/3 4/4/4 5/5/5
f 5/5/5 4/4/4 6/6/6
f 5/5/5 6/6/6 7/7/7
f 7/7/7 6/6/6 8/8/8
f 1/1/1 9/9/9 2/2/2
f 7/7/7 8/8/8 10/10/10
f 11/11/11 12/12/1 13/13/12
f 13/13/12 12/12/1 14/14/3
f 13/13/12 14/14/3 15/15/13
f 15/15/13 14/14/3 16/16/5
f 15/15/13 16/16/5 17/17/14
f 17/17/14 16/16/5 18/18/7
f 11/11/11 19/19/9 12/12/1
f 17/17/14 18/18/7 20/20/10
f 21/21/15 22/22/11 23/23/16
f 23/23/16 22/22/11 24/24/12
f 23/23/16 24/24/12 25/25/17
f 25/25/17 24/24/12 26/26/13
f 25/25/17 26/26/13 27/27/18
f 27/27/18 26/26/13 28/28/14
f 21/21/15 29/29/9 22/22/11
f 27/27/18 28/28/14 30/30/10
f 31/31/19 32/32/15 33/33/20
f 33/33/20 32/32/15 34/34/16
f 33/33/20 34/34/16 35/35/21
f 35/35/21 34/34/16 36/36/17
f 35/35/21 36/36/17 37/37/22
f 37/37/22 36/36/17 38/38/18
f 31/31/19 39/39/9 32/32/15
f 37/37/22 38/38/18 40/40/10
f 41/41/23 42/42/19 43/43/24
f 43/43/24 42/42/19 44/44/20
f 43/43/24 44/44/20 45/45/25
f 45/45/25 44/44/20 46/46/21
f 45/45/25 46/46/21 47/47/26
f 47/47/26 46/46/21 48/48/22
f 41/41/23 49/49/9 42/42/19
f 47/47/26 48/48/22 50/50/10
f 51/51/2 52/52/9 53/53/23
f 51/51/2 53/53/23 54/54/4
f 54/54/4 53/53/23 55/55/24
f 54/54/4 55/55/24 56/56/6
f 56/56/6 55/55/24 57/57/25
f 57/57/25 58/58/8 56/56/6
f 59/59/26 58/58/8 57/57/25
f 59/59/26 60/60/10 58/58/8
