# Blender v2.77 (sub 0) OBJ File: 'truenohoudini.blend'
# www.blender.org
mtllib truenohoudini.mtl
o trueno2
v -0.581597 -0.033443 -0.971242
v -0.580888 0.108721 -0.932816
v -0.573373 0.189840 -0.792228
v -0.577457 0.200404 -1.302505
v -0.577457 -0.030767 -1.245409
v -0.574379 0.388458 -0.791131
v -0.553727 0.371307 -1.257220
v -0.577457 0.303789 -1.272597
v -0.572764 0.177582 -0.694875
v -0.575140 0.194412 -0.693412
v -0.577457 0.200404 -0.563899
v -0.577457 0.385287 -0.563899
v -0.577328 0.390705 -0.792081
v -0.409181 0.677929 -0.597353
v -0.394815 0.634293 -0.726057
v -0.411090 0.592760 -0.786782
v -0.572591 0.195661 0.814436
v -0.577457 0.151397 0.983838
v -0.576192 0.054952 1.035657
v -0.570031 0.070837 1.173868
v -0.562942 0.214811 1.161013
v -0.557547 0.225516 1.354767
v -0.577457 0.314732 1.109738
v -0.577457 0.379985 0.814436
v -0.577457 -0.093369 -0.563899
v -0.579232 -0.094653 0.567982
v -0.538748 0.405823 0.567981
v -0.536734 0.407015 0.626075
v -0.523044 0.506752 0.484993
v -0.398419 0.688592 0.098712
v -0.582585 -0.098264 0.637574
v -0.573397 0.040179 0.636886
v -0.565412 0.046009 0.596240
v -0.556024 0.202336 0.582084
v -0.575684 0.195314 0.814436
v 0.000008 -0.028116 -0.992554
v 0.000008 -0.048231 -1.219704
v 0.000008 0.201655 -1.365937
v 0.000008 0.334269 -1.349652
v -0.522450 0.460304 -1.236951
v 0.000524 0.460824 -1.208448
v -0.483422 0.521904 -1.007127
v 0.000008 0.521366 -1.017459
v -0.444566 0.545118 -0.859275
v 0.000008 0.559430 -0.877655
v 0.000008 0.592056 -0.792228
v 0.000008 0.200404 -0.792228
v 0.000008 0.110614 -0.938612
v 0.000008 0.200404 -0.563899
v -0.577457 -0.093369 -0.563899
v 0.000008 -0.093369 -0.563899
v -0.600360 0.061423 -0.574918
v 0.000008 -0.024247 -0.578524
v 0.000008 0.137802 -0.612811
v -0.571652 0.134156 -0.616981
v 0.000008 0.194966 -0.792228
v 0.000008 0.390725 -0.792228
v -0.000215 0.623144 -0.682966
v 0.000008 0.662747 -0.563899
v 0.000008 0.385287 -0.563899
v 0.001651 0.248224 1.400456
v -0.577457 -0.035905 1.368706
v 0.000008 -0.071550 1.335403
v -0.576136 -0.097035 1.051791
v 0.000008 -0.098807 1.109738
v -0.578230 0.047498 1.043359
v 0.000008 0.021525 1.049188
v 0.000008 0.151397 0.983838
v 0.000008 0.205842 0.814436
v 0.000008 0.379985 0.814436
v 0.000008 0.314732 1.109738
v 0.000008 0.379837 -0.563899
v 0.000714 0.685021 0.119233
v 0.000008 0.407173 0.602365
v 0.000008 0.358073 0.607803
v -0.581964 -0.094925 0.637420
v 0.000008 -0.082493 0.602365
v 0.000008 0.200404 0.602365
v 0.000008 0.200404 0.814436
v -0.582015 0.108418 0.679190
v 0.000008 0.113400 0.673056
v -0.563899 0.379755 -1.027648
v -0.485153 0.519171 -1.017325
v -0.571831 0.386342 -0.848624
v -0.577457 -0.079959 1.187332
v -0.577457 0.055779 -0.563899
v 0.581614 -0.033443 -0.971242
v 0.577473 -0.030767 -1.245409
v 0.577473 0.200404 -1.302505
v 0.573389 0.189840 -0.792228
v 0.580905 0.108721 -0.932816
v 0.577473 0.303789 -1.272597
v 0.553744 0.371307 -1.257220
v 0.574395 0.388458 -0.791131
v 0.575157 0.194412 -0.693412
v 0.572780 0.177582 -0.695295
v 0.577344 0.390705 -0.792081
v 0.577473 0.385287 -0.563899
v 0.577473 0.200404 -0.563899
v 0.411107 0.592760 -0.786782
v 0.394832 0.634293 -0.726057
v 0.409197 0.677929 -0.597353
v 0.572608 0.195661 0.814436
v 0.562958 0.214811 1.161013
v 0.570047 0.070837 1.173868
v 0.576208 0.054952 1.035657
v 0.577473 0.151397 0.983838
v 0.577473 0.379985 0.814436
v 0.577473 0.314732 1.109738
v 0.557563 0.225516 1.354767
v 0.577473 -0.093369 -0.563899
v 0.538765 0.405823 0.567981
v 0.576009 -0.094653 0.567982
v 0.398436 0.688592 0.098712
v 0.523060 0.506752 0.484993
v 0.536750 0.407015 0.626075
v 0.582602 -0.098264 0.637574
v 0.565428 0.046009 0.596240
v 0.573413 0.040179 0.636886
v 0.556040 0.202336 0.582084
v 0.575700 0.195314 0.814436
v -0.000508 0.460824 -1.208448
v 0.522466 0.460304 -1.236951
v 0.483438 0.521904 -1.007127
v 0.444583 0.545118 -0.859275
v 0.577473 -0.093369 -0.563899
v 0.600376 0.061423 -0.574918
v 0.571669 0.134156 -0.616981
v -0.001635 0.248224 1.400456
v 0.577473 -0.035905 1.368706
v 0.576153 -0.097035 1.051791
v 0.578246 0.047498 1.043359
v -0.000697 0.685021 0.119233
v 0.581980 -0.094925 0.637420
v 0.582031 0.108418 0.679190
v 0.485170 0.519171 -1.017325
v 0.563916 0.379755 -1.027648
v 0.571848 0.386342 -0.848624
v 0.577473 -0.079959 1.187332
v 0.577473 0.055779 -0.563899
vn -0.9998 0.0211 -0.0060
vn -0.9982 0.0598 -0.0038
vn -0.9902 -0.1389 -0.0113
vn -0.9999 -0.0102 -0.0091
vn -0.8220 0.5590 -0.1090
vn -0.9956 0.0827 0.0436
vn -0.9969 -0.0771 0.0147
vn -0.9990 0.0413 0.0159
vn -0.8883 0.4592 -0.0002
vn -0.9809 0.0642 -0.1835
vn -0.9887 0.0600 -0.1371
vn -0.0106 -0.9993 0.0347
vn -0.0355 -0.3891 -0.9205
vn -0.1237 0.1906 -0.9738
vn -0.0523 0.5365 -0.8423
vn 0.0051 0.9602 -0.2792
vn -0.0209 0.9784 -0.2056
vn -0.0267 0.8934 -0.4485
vn 0.0056 -0.0080 1.0000
vn 0.0118 -0.8592 0.5114
vn 0.0241 -0.3123 0.9497
vn 0.0000 0.0000 1.0000
vn -0.0114 -0.1149 -0.9933
vn -0.0070 -0.9529 -0.3031
vn -0.0001 0.0004 -1.0000
vn -0.0056 0.0155 -0.9999
vn 0.0320 0.9180 -0.3952
vn 0.0610 0.9472 -0.3147
vn -0.0328 0.0682 0.9971
vn -0.0118 -0.0872 0.9961
vn -0.0354 -0.9864 0.1606
vn 0.0474 -0.2514 -0.9667
vn 0.0085 -0.9601 -0.2796
vn 0.0000 -0.0000 -1.0000
vn 0.0000 0.9764 0.2158
vn -0.0304 0.9595 0.2801
vn 0.0324 -0.0674 -0.9972
vn 0.0248 0.9994 -0.0241
vn 0.0283 0.8820 0.4704
vn 0.0313 0.6997 0.7137
vn 0.0477 0.0040 0.9989
vn 0.0108 -0.9999 0.0040
vn -0.0029 0.1064 -0.9943
vn 0.0027 0.9909 0.1344
vn 0.0102 -0.8467 0.5320
vn 0.0148 -0.2692 0.9630
vn -0.9003 0.4351 -0.0108
vn -0.7801 0.6234 -0.0530
vn -0.8244 0.5654 0.0259
vn -0.9981 0.0622 0.0053
vn -0.9827 0.1205 -0.1407
vn -0.9964 0.0851 -0.0062
vn -0.9996 0.0258 0.0146
vn -0.0061 -0.4711 -0.8820
vn -0.0210 -0.3069 -0.9515
vn -0.4335 0.0000 0.9011
vn -0.9987 0.0259 0.0439
vn 0.9998 0.0211 -0.0060
vn 0.9982 0.0598 -0.0038
vn 0.9903 -0.1386 -0.0113
vn 0.9999 -0.0102 -0.0091
vn 0.8220 0.5590 -0.1090
vn 0.9956 0.0827 0.0436
vn 0.9969 -0.0771 0.0147
vn 0.9991 0.0380 0.0174
vn 0.8883 0.4592 -0.0002
vn 0.9809 0.0642 -0.1835
vn 0.9887 0.0600 -0.1371
vn 0.0106 -0.9993 0.0347
vn 0.0355 -0.3891 -0.9205
vn 0.1237 0.1906 -0.9738
vn 0.0523 0.5365 -0.8423
vn -0.0051 0.9602 -0.2792
vn 0.0209 0.9784 -0.2056
vn 0.0267 0.8934 -0.4485
vn -0.0056 -0.0080 1.0000
vn -0.0118 -0.8592 0.5114
vn -0.0241 -0.3123 0.9497
vn 0.0114 -0.1149 -0.9933
vn 0.0068 -0.9529 -0.3031
vn 0.0001 0.0004 -1.0000
vn 0.0056 0.0155 -0.9999
vn -0.0320 0.9180 -0.3953
vn -0.0610 0.9473 -0.3146
vn 0.0328 0.0682 0.9971
vn 0.0118 -0.0872 0.9961
vn 0.0354 -0.9864 0.1606
vn -0.0474 -0.2514 -0.9667
vn -0.0085 -0.9601 -0.2796
vn 0.0304 0.9595 0.2801
vn -0.0324 -0.0674 -0.9972
vn -0.0248 0.9994 -0.0241
vn -0.0283 0.8820 0.4704
vn -0.0313 0.6997 0.7137
vn -0.0477 0.0040 0.9989
vn -0.0108 -0.9999 0.0040
vn 0.0029 0.1064 -0.9943
vn -0.0027 0.9909 0.1344
vn -0.0102 -0.8467 0.5320
vn -0.0148 -0.2692 0.9630
vn 0.9003 0.4351 -0.0108
vn 0.7801 0.6234 -0.0530
vn 0.8244 0.5654 0.0259
vn 0.9981 0.0622 0.0053
vn 0.9827 0.1205 -0.1407
vn 0.9962 0.0816 -0.0315
vn 0.9996 0.0258 0.0146
vn 0.0061 -0.4711 -0.8820
vn 0.0210 -0.3069 -0.9515
vn 0.4335 0.0000 0.9011
vn 0.9987 0.0258 0.0438
usemtl None
s off
f 1//1 2//1 3//1 4//1 5//1
f 4//2 3//2 6//2 7//2 8//2
f 3//3 9//3 10//3
f 3//4 11//4 12//4 13//4
f 13//5 12//5 14//5 15//5 16//5
f 17//6 18//6 19//6 20//6 21//6
f 17//7 22//7 23//7 24//7
f 25//8 26//8 27//8 12//8
f 12//9 28//9 29//9 30//9 14//9
f 31//10 32//10 33//10
f 34//11 35//11 24//11 28//11
f 36//12 1//12 5//12 37//12
f 37//13 5//13 4//13 38//13
f 38//14 4//14 8//14 39//14
f 39//15 8//15 40//15 41//15
f 41//16 40//16 42//16 43//16
f 43//17 42//17 44//17 45//17
f 45//18 44//18 16//18 46//18
f 46//19 16//19 3//19 47//19
f 47//20 3//20 2//20 48//20
f 48//21 2//21 1//21 36//21
f 49//22 11//22 50//22 51//22
f 51//23 50//23 52//23 53//23
f 54//24 55//24 9//24 3//24 56//24
f 56//25 3//25 13//25 57//25
f 57//26 13//26 16//26 46//26
f 46//27 16//27 15//27 58//27
f 58//28 15//28 14//28 59//28
f 59//29 14//29 12//29 60//29
f 60//22 12//22 11//22 49//22
f 61//30 22//30 62//30 63//30
f 63//31 62//31 64//31 65//31
f 65//32 64//32 66//32 67//32
f 68//33 18//33 17//33 69//33
f 69//34 17//34 24//34 70//34
f 70//35 24//35 23//35 71//35
f 71//36 23//36 22//36 61//36
f 51//34 25//34 12//34 72//34
f 72//37 12//37 14//37 59//37
f 59//38 14//38 30//38 73//38
f 73//39 30//39 29//39 74//39
f 74//40 29//40 28//40 75//40
f 75//41 28//41 76//41 77//41
f 77//42 76//42 25//42 51//42
f 78//43 34//43 28//43 74//43
f 74//44 28//44 24//44 70//44
f 70//22 24//22 35//22 79//22
f 79//45 35//45 80//45 81//45
f 81//46 80//46 32//46 31//46 77//46
f 7//47 82//47 83//47 40//47
f 84//48 6//48 16//48 44//48
f 82//49 84//49 44//49 42//49 83//49
f 21//50 85//50 62//50 22//50
f 33//51 32//51 80//51 35//51 34//51
f 26//52 76//52 28//52 27//52
f 20//53 19//53 64//53 85//53
f 67//54 66//54 18//54 68//54
f 53//55 52//55 55//55 54//55
f 86//56 52//56 50//56
f 10//57 9//57 55//57 52//57 86//57 11//57
f 87//58 88//58 89//58 90//58 91//58
f 89//59 92//59 93//59 94//59 90//59
f 90//60 95//60 96//60
f 90//61 97//61 98//61 99//61
f 97//62 100//62 101//62 102//62 98//62
f 103//63 104//63 105//63 106//63 107//63
f 103//64 108//64 109//64 110//64
f 111//65 98//65 112//65 113//65
f 98//66 102//66 114//66 115//66 116//66
f 117//67 118//67 119//67
f 120//68 116//68 108//68 121//68
f 36//69 37//69 88//69 87//69
f 37//70 38//70 89//70 88//70
f 38//71 39//71 92//71 89//71
f 39//72 122//72 123//72 92//72
f 122//73 43//73 124//73 123//73
f 43//74 45//74 125//74 124//74
f 45//75 46//75 100//75 125//75
f 46//76 47//76 90//76 100//76
f 47//77 48//77 91//77 90//77
f 48//78 36//78 87//78 91//78
f 49//22 51//22 126//22 99//22
f 51//79 53//79 127//79 126//79
f 54//80 56//80 90//80 96//80 128//80
f 56//81 57//81 97//81 90//81
f 57//82 46//82 100//82 97//82
f 46//83 58//83 101//83 100//83
f 58//84 59//84 102//84 101//84
f 59//85 60//85 98//85 102//85
f 60//22 49//22 99//22 98//22
f 129//86 63//86 130//86 110//86
f 63//87 65//87 131//87 130//87
f 65//88 67//88 132//88 131//88
f 68//89 69//89 103//89 107//89
f 69//34 70//34 108//34 103//34
f 70//35 71//35 109//35 108//35
f 71//90 129//90 110//90 109//90
f 51//34 72//34 98//34 111//34
f 72//91 59//91 102//91 98//91
f 59//92 133//92 114//92 102//92
f 133//93 74//93 115//93 114//93
f 74//94 75//94 116//94 115//94
f 75//95 77//95 134//95 116//95
f 77//96 51//96 111//96 134//96
f 78//97 74//97 116//97 120//97
f 74//98 70//98 108//98 116//98
f 70//22 79//22 121//22 108//22
f 79//99 81//99 135//99 121//99
f 81//100 77//100 117//100 119//100 135//100
f 93//101 123//101 136//101 137//101
f 138//102 125//102 100//102 94//102
f 137//103 136//103 124//103 125//103 138//103
f 104//104 110//104 130//104 139//104
f 118//105 120//105 121//105 135//105 119//105
f 113//106 112//106 116//106 134//106
f 105//107 139//107 131//107 106//107
f 67//108 68//108 107//108 132//108
f 53//109 54//109 128//109 127//109
f 140//110 126//110 127//110
f 95//111 99//111 140//111 127//111 128//111 96//111
