# Blender v2.77 (sub 0) OBJ File: ''
# www.blender.org
mtllib garage.mtl
o Cube_Cube.001
v 3.000000 0.004371 -3.000000
v 3.000000 0.005274 3.000000
v -3.000000 0.004372 3.000000
v -2.999999 0.003451 -3.000001
v 3.000001 1.796270 -2.999999
v 2.999998 1.799833 3.000002
v -3.000001 1.796271 2.999999
v -3.000000 1.792660 -3.000000
v 2.400000 -0.000675 -3.000000
v 2.400000 0.000324 3.000000
v 2.400001 1.776701 -2.999999
v 2.399998 1.780532 3.000001
v -2.459999 -0.000675 -3.000001
v -2.460001 0.000324 3.000000
v -2.460000 1.776701 -3.000000
v -2.460001 1.780532 2.999999
v 3.000000 0.000324 2.400000
v -3.000000 -0.000675 2.400000
v 2.999998 1.780532 2.400002
v -3.000001 1.776702 2.399999
v 2.399998 2.204995 2.400002
v -2.460001 2.204995 2.399999
v -2.999999 -0.000675 -2.460001
v -3.000000 1.776701 -2.460000
v 3.000000 0.000323 -2.460000
v 3.000001 1.780532 -2.459999
v 2.400001 2.204994 -2.459999
v -2.460000 2.204994 -2.460000
v 2.400001 2.747868 -2.459999
v 2.399998 2.747868 2.400002
v -2.460000 2.747868 -2.460000
v -2.460001 2.747868 2.399999
v 3.000000 1.780532 -0.029998
v 2.400000 2.204994 -0.029999
v -2.460000 2.204994 -0.030000
v -3.000000 1.776702 -0.030001
v 2.400000 3.885102 -0.029999
v -2.460000 3.885102 -0.030001
v 2.400000 -0.000675 -3.000000
v 2.400001 1.776701 -2.999999
v -2.459999 -0.000675 -3.000001
v -2.460000 1.776701 -3.000000
v 2.400000 0.000324 3.000000
v 2.399998 1.780532 3.000001
v -2.460001 0.000324 3.000000
v -2.460001 1.780532 2.999999
v 3.000000 0.000324 2.400000
v 2.999998 1.780532 2.400002
v 3.000000 0.000323 -2.460000
v 3.000001 1.780532 -2.459999
vt 0.5179 0.5276
vt 0.5694 0.5104
vt 0.5695 0.5598
vt 0.5184 0.5591
vt 0.8297 0.4891
vt 0.9982 0.4892
vt 1.0000 0.5435
vt 0.8301 0.5434
vt 0.8297 0.0489
vt 0.6611 0.0489
vt 0.6596 0.0000
vt 0.8293 0.0000
vt 0.5397 0.7211
vt 0.5397 0.8820
vt 0.4885 0.8835
vt 0.4885 0.7214
vt 0.5169 0.0724
vt 0.5184 0.0007
vt 0.5695 0.0009
vt 0.5680 0.0731
vt 0.0000 0.0724
vt 0.0015 0.0001
vt 0.0583 0.0000
vt 0.0568 0.0717
vt 0.8292 0.5434
vt 0.6593 0.5434
vt 0.6611 0.4891
vt 0.8297 0.4891
vt 0.0014 0.5097
vt 0.0578 0.5269
vt 0.0583 0.5584
vt 0.0015 0.5591
vt 0.4317 0.5599
vt 0.4885 0.5598
vt 0.4885 0.7208
vt 0.4317 0.7211
vt 0.3749 0.5598
vt 0.4317 0.5599
vt 0.4317 0.7211
vt 0.3749 0.7208
vt 0.6209 0.4891
vt 0.6209 0.0489
vt 0.5695 0.4891
vt 0.5695 0.0489
vt 0.0008 0.3126
vt 0.0572 0.3298
vt 0.3181 0.7221
vt 0.3181 0.5598
vt 0.3749 0.5616
vt 0.3749 0.7226
vt 0.3749 0.8821
vt 0.3749 0.7211
vt 0.4261 0.7211
vt 0.4261 0.8821
vt 0.5173 0.3305
vt 0.5688 0.3133
vt 0.5682 0.1163
vt 0.5167 0.1335
vt 0.8304 0.0000
vt 1.0000 0.0001
vt 0.9985 0.0490
vt 0.8299 0.0489
vt 0.0566 0.1328
vt 0.0001 0.1156
vt 0.5454 0.5598
vt 0.5454 0.7211
vt 0.4885 0.7211
vt 0.4885 0.5598
vt 0.0558 0.3976
vt 0.5159 0.3983
vt 0.5175 0.5495
vt 0.0574 0.5488
vt 0.1591 0.7799
vt 0.1591 1.0000
vt 0.1077 1.0000
vt 0.0000 0.7799
vt 0.5162 0.1554
vt 0.0561 0.1547
vt 0.3181 0.7799
vt 0.3181 1.0000
vt 0.2667 1.0000
vt 0.1591 0.7799
vt 0.3181 0.5598
vt 0.2667 0.5598
vt 0.1591 0.5598
vt 0.1077 0.5598
vt 0.8297 0.5435
vt 0.9979 0.5435
vt 0.9979 0.9837
vt 0.8297 0.9837
vt 0.8132 0.9849
vt 0.7381 0.9836
vt 0.7381 0.5434
vt 0.8132 0.5448
vt 0.5695 0.9836
vt 0.5695 0.5434
vt 0.7381 0.5434
vt 0.7381 0.9836
vn -0.3403 0.8910 0.3006
vn 1.0000 0.0000 0.0000
vn -0.0000 0.0000 1.0000
vn -1.0000 -0.0000 -0.0000
vn 0.0000 0.0000 -1.0000
vn 0.3047 0.9024 0.3047
vn 0.7433 0.0000 -0.6690
vn -0.6690 0.0000 0.7433
vn -0.0000 0.8164 0.5775
vn 0.5775 0.8164 0.0000
vn 0.7071 -0.0000 0.7071
vn -0.6214 0.7835 -0.0000
vn -0.3359 0.8799 -0.3359
vn 0.3006 0.8910 -0.3403
vn 0.0000 0.7835 -0.6214
vn -0.7071 -0.0000 -0.7071
vn -0.0000 0.9057 0.4239
vn 0.0000 0.9057 -0.4239
usemtl Material.001
s 1
f 22/1/1 20/2/1 7/3/1 16/4/1
f 17/5/2 19/6/2 6/7/2 2/8/2
f 14/9/3 16/10/3 7/11/3 3/12/3
f 23/13/4 24/14/4 8/15/4 4/16/4
f 15/17/5 13/18/5 4/19/5 8/20/5
f 5/21/5 1/22/5 9/23/5 11/24/5
f 2/25/3 6/26/3 12/27/3 10/28/3
f 19/29/6 21/30/6 12/31/6 6/32/6
f 14/33/7 18/34/7 20/35/7 16/36/7
f 9/37/8 25/38/8 26/39/8 11/40/8
f 21/41/9 22/42/9 16/10/9 12/27/9
f 22/42/3 21/41/3 30/43/3 32/44/3
f 33/45/10 34/46/10 21/30/10 19/29/10
f 3/47/4 7/48/4 20/49/4 18/50/4
f 24/51/11 23/52/11 13/53/11 15/54/11
f 35/55/12 36/56/12 20/2/12 22/1/12
f 15/17/13 8/20/13 24/57/13 28/58/13
f 1/59/2 5/60/2 26/61/2 25/62/2
f 5/21/14 11/24/14 27/63/14 26/64/14
f 11/24/15 15/17/15 28/58/15 27/63/15
f 10/65/16 12/66/16 19/67/16 17/68/16
f 37/69/17 38/70/17 32/71/17 30/72/17
f 34/73/2 27/74/2 29/75/2 37/76/2
f 27/63/5 28/58/5 31/77/5 29/78/5
f 35/79/4 22/80/4 32/81/4 38/82/4
f 28/83/4 35/79/4 38/82/4 31/84/4
f 21/85/2 34/73/2 37/76/2 30/86/2
f 29/78/18 31/77/18 38/70/18 37/69/18
f 28/58/12 24/57/12 36/56/12 35/55/12
f 26/64/10 27/63/10 34/46/10 33/45/10
f 14/9/3 10/28/3 12/27/3 16/10/3
f 25/62/2 26/61/2 19/6/2 17/5/2
f 15/17/5 11/24/5 9/23/5 13/18/5
f 42/87/3 41/88/3 39/89/3 40/90/3
f 45/91/5 46/92/5 44/93/5 43/94/5
f 49/95/4 47/96/4 48/97/4 50/98/4
